<svg id="Layer_1" data-name="Layer 1" xmlns="http://www.w3.org/2000/svg" viewBox="0 0 24.01 24.01"><defs><style>.cls-1{fill:#fff;}</style></defs><title>ig_icon</title><path class="cls-1" d="M12,2.16c3.2,0,3.58,0,4.85.07a6.67,6.67,0,0,1,2.23.42,3.89,3.89,0,0,1,2.27,2.27,6.67,6.67,0,0,1,.42,2.23c.06,1.27.07,1.65.07,4.85s0,3.59-.07,4.86a6.54,6.54,0,0,1-.42,2.22,4,4,0,0,1-2.27,2.28,6.67,6.67,0,0,1-2.23.42c-1.27,0-1.65.07-4.85.07s-3.59,0-4.85-.07a6.55,6.55,0,0,1-2.23-.42,3.56,3.56,0,0,1-1.38-.9,3.56,3.56,0,0,1-.9-1.38,6.54,6.54,0,0,1-.42-2.22c0-1.27-.07-1.65-.07-4.86s0-3.58.07-4.85a6.67,6.67,0,0,1,.42-2.23,3.71,3.71,0,0,1,.9-1.38,3.65,3.65,0,0,1,1.38-.89,6.55,6.55,0,0,1,2.23-.42c1.26,0,1.64-.07,4.85-.07M12,0C8.75,0,8.34,0,7.06.07A8.83,8.83,0,0,0,4.14.63,5.85,5.85,0,0,0,2,2,5.91,5.91,0,0,0,.63,4.14,9,9,0,0,0,.07,7.05C0,8.34,0,8.74,0,12S0,15.67.07,17a9.09,9.09,0,0,0,.56,2.92A5.88,5.88,0,0,0,2,22a5.88,5.88,0,0,0,2.12,1.39,9.09,9.09,0,0,0,2.92.56c1.28,0,1.69.07,5,.07s3.67,0,5-.07a9,9,0,0,0,2.91-.56,6.16,6.16,0,0,0,3.51-3.51A8.83,8.83,0,0,0,23.94,17C24,15.67,24,15.26,24,12s0-3.66-.07-4.95a8.76,8.76,0,0,0-.56-2.91A6.07,6.07,0,0,0,19.87.63,8.76,8.76,0,0,0,17,.07C15.68,0,15.27,0,12,0Z" transform="translate(0)"/><path class="cls-1" d="M12,5.84A6.17,6.17,0,1,0,18.17,12h0A6.16,6.16,0,0,0,12,5.84ZM12,16a4,4,0,1,1,4-4A4,4,0,0,1,12,16Z" transform="translate(0)"/><circle class="cls-1" cx="18.41" cy="5.6" r="1.44"/></svg>